<?xml version="1.0" standalone="no"?>
<!DOCTYPE svg PUBLIC "-//W3C//DTD SVG 20010904//EN"
 "http://www.w3.org/TR/2001/REC-SVG-20010904/DTD/svg10.dtd">
<svg version="1.0" xmlns="http://www.w3.org/2000/svg"
 width="880.000000pt" height="880.000000pt" viewBox="0 0 880.000000 880.000000"
 preserveAspectRatio="xMidYMid meet">
<metadata>
Created by potrace 1.14, written by Peter Selinger 2001-2017
</metadata>
<g transform="translate(0.000000,880.000000) scale(0.100000,-0.100000)"
fill="#000000" stroke="none">
<path d="M5640 8702 c-108 -110 -145 -151 -212 -237 -27 -33 -52 -65 -58 -72
-28 -34 -155 -230 -199 -309 -44 -79 -151 -297 -151 -308 0 -2 -8 -21 -17 -42
-9 -22 -17 -41 -18 -44 0 -3 -3 -9 -6 -15 -4 -5 -14 -35 -24 -65 -10 -30 -22
-61 -28 -67 -5 -7 -7 -13 -3 -13 3 0 1 -12 -5 -27 -17 -43 -77 -245 -83 -278
-3 -16 -12 -57 -21 -90 -8 -33 -17 -71 -20 -85 -3 -14 -7 -36 -10 -50 -3 -14
-8 -38 -10 -55 -3 -16 -10 -56 -16 -87 -5 -32 -12 -74 -14 -95 -3 -21 -7 -54
-10 -73 -3 -19 -7 -61 -10 -94 -2 -32 -6 -60 -8 -62 -11 -11 -67 -15 -67 -5 0
25 -119 152 -210 223 -90 70 -84 66 -140 103 -25 16 -47 32 -50 35 -3 3 -27
23 -55 44 -125 98 -297 299 -410 476 -70 110 -75 119 -76 127 -1 5 -9 19 -19
33 -30 43 -151 289 -154 313 -1 4 -5 6 -11 5 -5 -2 -8 -7 -7 -13 4 -10 9 -56
17 -150 2 -27 7 -72 10 -100 13 -118 18 -247 19 -525 0 -291 -5 -384 -25 -487
-6 -29 -12 -64 -13 -79 -2 -21 -12 -29 -52 -44 -57 -20 -147 -64 -185 -91 -39
-28 -74 -19 -224 53 -22 11 -56 29 -75 40 -19 12 -44 26 -55 33 -65 38 -85 51
-85 58 0 4 -5 7 -10 7 -6 0 -16 5 -23 10 -7 6 -43 34 -82 63 -38 28 -75 57
-81 62 -6 6 -38 32 -70 60 -71 60 -325 312 -377 375 -20 25 -48 59 -62 75 -14
17 -39 51 -56 78 -17 26 -33 47 -35 47 -2 0 13 -44 33 -97 19 -54 42 -118 50
-143 8 -25 17 -52 20 -60 19 -50 54 -147 56 -155 2 -5 22 -67 45 -137 44 -136
88 -291 97 -348 43 -249 51 -277 110 -395 24 -49 43 -90 42 -90 -1 -1 -24 -8
-52 -15 -116 -31 -315 -134 -382 -199 -12 -11 -25 -21 -28 -21 -4 0 -36 -30
-71 -67 -67 -70 -177 -228 -208 -298 -9 -22 -21 -49 -26 -60 -14 -32 -50 -154
-55 -189 -2 -17 -7 -47 -11 -66 -18 -92 -3 -350 25 -423 8 -21 6 -28 -12 -40
-52 -34 -207 -201 -207 -222 0 -5 -8 -18 -19 -29 -30 -33 -85 -143 -119 -238
-17 -49 -29 -88 -26 -88 2 0 1 -8 -5 -17 -30 -57 -35 -363 -8 -478 23 -94 22
-91 50 -167 33 -85 77 -165 139 -252 51 -70 50 -67 32 -146 -12 -52 -17 -118
-17 -210 0 -140 11 -208 58 -360 11 -36 95 -210 105 -220 3 -3 23 -30 45 -60
93 -131 297 -296 432 -351 32 -12 59 -23 61 -25 2 -1 5 -26 8 -55 9 -110 14
-144 38 -234 77 -297 300 -564 579 -695 86 -40 201 -80 247 -86 14 -1 45 -6
70 -11 25 -5 94 -9 154 -9 119 1 116 2 154 -74 41 -82 238 -300 272 -300 5 0
10 -4 10 -9 0 -10 104 -75 180 -112 75 -37 155 -66 205 -74 11 -2 20 -4 20 -5
0 -2 24 -7 90 -18 33 -6 121 -8 195 -6 156 5 170 6 170 15 0 3 8 6 18 6 26 -1
68 11 167 49 79 30 221 103 235 122 3 4 23 20 45 37 91 66 196 186 264 299
l41 70 133 1 c136 2 205 12 317 46 78 24 265 114 290 139 3 3 23 18 45 34 39
29 176 162 205 201 32 42 97 152 119 200 12 28 26 57 30 65 12 22 52 155 55
182 2 13 6 43 10 68 6 39 8 64 15 148 1 6 4 11 9 10 12 -4 197 92 227 118 15
13 32 24 37 24 19 0 197 190 245 260 62 93 156 290 138 290 -2 0 2 15 10 33 7
17 16 48 19 67 3 19 8 49 12 65 11 61 10 242 -2 315 -7 41 -15 89 -18 105 -4
24 5 42 45 95 90 118 165 295 193 458 17 97 17 274 -1 370 -46 252 -178 479
-376 650 -25 21 -37 38 -33 48 26 67 27 333 2 444 -3 14 -8 34 -10 46 -20 97
-80 236 -149 340 -72 109 -156 197 -282 292 -32 24 -118 73 -172 98 -35 16
-63 32 -63 36 0 3 14 20 30 36 17 17 30 35 30 41 0 6 3 11 8 11 4 0 46 51 92
113 47 61 88 114 91 117 3 3 35 48 72 100 36 52 70 100 74 105 4 6 17 23 27
40 11 16 23 34 28 40 20 23 128 189 124 192 -6 6 -404 -159 -483 -201 -18 -9
-33 -14 -33 -9 0 4 -4 3 -8 -2 -4 -6 -18 -15 -32 -21 -14 -7 -155 -76 -313
-155 l-288 -143 -22 29 c-12 16 -52 60 -89 96 l-66 67 26 24 c41 38 109 115
155 177 23 31 45 58 50 59 4 2 7 7 7 12 0 7 54 94 78 125 4 6 21 37 39 70 17
33 43 82 57 109 14 27 26 55 26 62 0 8 5 14 10 14 6 0 10 7 10 15 0 8 9 30 20
50 11 19 18 35 15 35 -2 0 3 17 12 38 8 20 20 48 26 62 6 14 11 27 12 30 0 3
14 45 29 94 32 105 64 245 73 323 l6 55 -54 -52 c-97 -95 -242 -227 -328 -298
-24 -21 -49 -42 -55 -47 -32 -29 -141 -105 -152 -105 -7 0 -14 -4 -16 -8 -1
-4 -50 -37 -108 -72 -58 -35 -107 -67 -110 -70 -3 -3 -25 -18 -50 -34 -142
-91 -303 -238 -392 -357 -43 -58 -53 -67 -69 -59 -10 6 -16 16 -14 23 6 18 87
320 90 337 2 8 4 15 5 15 1 0 3 7 5 15 13 49 26 96 54 190 18 58 34 114 36
125 3 11 9 29 14 40 5 11 17 45 27 75 23 76 90 255 118 315 76 166 111 235
118 235 4 0 8 7 8 15 0 8 11 31 25 52 14 21 30 45 35 53 82 130 174 238 308
362 l40 38 -15 47 c-8 27 -26 84 -40 128 -31 102 -29 94 -38 133 -4 18 -10 34
-14 36 -3 2 -49 -39 -101 -92z"/>
</g>
</svg>
