<svg width="155.743" height="219.575" viewBox="0 0 41.207 58.096" xmlns="http://www.w3.org/2000/svg">
  <g transform="translate(-9.072 -4.636)">
    <path d="M18.356 25.034c-2.287-2.647-1.832-3.433-2.337-5.378-.434-1.671-1.96-5.798-1.96-5.798.575 1.458 6.352 7.505 9.505 6.879 1.273-3.08.241-10.4.241-10.4s1.805 4.711 4.9 6.912c1.197.851 2.587 1.72 2.995 3.242.405-5.713 2.2-11.704 6.832-15.856l.706 2.346c-3.695 2.92-4.74 8.44-6.18 13.572 1.08-2.481 3.258-3.792 5.478-5.137 1.204-.73 3.777-3.273 3.777-3.273-.327 3.732-3.567 10.426-7.567 10.462l2.351.897a98.882 98.882 0 016.487-3.32c1.086-.505 3.313-1.39 3.313-1.39s-4.962 7.608-5.71 6.516z" fill="#91a75b"/>
    <g id="group-1" transform="translate(-81.562 -135.62)">
      <circle cx="111.19" cy="191.16" r="7.189"/>
      <circle cx="104" cy="187.19" r="7.189"/>
      <circle cx="99.299" cy="180.44" r="7.189"/>
      <circle cx="97.823" cy="173.86" r="7.189"/>
      <circle cx="100.36" cy="166.18" r="7.189"/>
    </g>
    <path d="M18.752 23.376a7.189 7.189 0 00-7.146 7.189 7.189 7.189 0 00.278 1.977 7.189 7.189 0 00-2.812 5.701 7.189 7.189 0 001.733 4.68 7.189 7.189 0 00-.257 1.9 7.189 7.189 0 004.698 6.745 7.189 7.189 0 000 .006 7.189 7.189 0 007.189 7.189 7.189 7.189 0 00.746-.039 7.189 7.189 0 006.446 4.008 7.189 7.189 0 007.19-7.189 7.189 7.189 0 00-7.19-7.19 7.189 7.189 0 00-.745.04 7.189 7.189 0 00-3.956-3.562 7.189 7.189 0 000-.007 7.189 7.189 0 00-1.731-4.68 7.189 7.189 0 00.255-1.9 7.189 7.189 0 00-.277-1.977 7.189 7.189 0 002.811-5.702 7.189 7.189 0 00-7.189-7.189 7.189 7.189 0 00-.043 0z" fill-opacity=".04" fill-rule="evenodd"/>
    <g id="group-2">
      <circle transform="scale(-1 1)" cx="-36.917" cy="51.574" r="7.189"/>
      <circle transform="scale(-1 1)" cx="-29.75" cy="47.627" r="7.189"/>
      <circle cx="25.018" cy="40.877" r="7.189"/>
    </g>
    <g id="group-5">
      <circle transform="scale(-1 1)" cx="-40.437" cy="30.869" r="7.189"/>
    </g>
    <g id="group-4" transform="scale(-1 1)">
      <circle cx="-33.39" cy="26.618" r="7.189"/>
      <circle cx="-43.09" cy="38.243" r="7.189"/>
      <circle cx="-35.924" cy="34.296" r="7.189"/>
    </g>
    <g id="group-3">
      <circle transform="scale(-1 1)" cx="-41.615" cy="44.824" r="7.189"/>
      <circle transform="scale(-1 1)" cx="-34.448" cy="40.877" r="7.189"/>
      <circle cx="26.076" cy="26.618" r="7.189"/>
      <circle cx="25.113" cy="34.08" r="7.189"/>
    </g>
    <path d="M29.092 31.488c.424.607 1.378 1.705 1.889 1.169.955-1.002-1.08-3.964-2.354-3.421-.705.3.026 1.624.465 2.252zM30.222 25.003c.431.616 1.4 1.73 1.922 1.187.976-1.016-1.092-4.022-2.39-3.472-.72.305.022 1.647.468 2.285zM38.148 38.418c.478.494 1.507 1.344 1.862.702.665-1.199-1.638-3.617-2.662-2.792-.567.457.305 1.579.8 2.09zM39.547 31.884c.486.614 1.564 1.716 2.086 1.133.976-1.09-1.356-4.089-2.697-3.463-.742.347.108 1.694.611 2.33zM37.098 23.503c.4.48 1.278 1.338 1.67.851.734-.91-1.185-3.259-2.218-2.713-.573.302.135 1.364.548 1.862zM44.336 27.747c.39.474 1.252 1.319 1.64.842.723-.892-1.156-3.207-2.173-2.674-.564.295.128 1.341.533 1.832zM47.724 36.547c.326.502 1.066 1.416 1.494.997.8-.783-.763-3.234-1.807-2.83-.578.223-.025 1.313.313 1.833zM45.871 43.617c.488.443 1.525 1.193 1.826.558.562-1.19-1.79-3.361-2.72-2.509-.515.472.389 1.492.894 1.951z" fill="#fff" fill-opacity=".2" fill-rule="evenodd"/>
  </g>
</svg>
